<svg width="286" height="276" viewBox="0 0 286 276" fill="none" xmlns="http://www.w3.org/2000/svg">
<path d="M3.84725 55.2715C8.113 54.9102 16.8135 55.1445 21.3708 55.151L53.1245 55.2235L53.4177 55.493C52.8647 57.9962 43.4333 57.2082 41.9658 66.8202C40.702 75.0995 41.1748 82.601 41.1725 90.892L41.163 131.53L41.178 198.041L41.1783 218.809C41.16 225.799 40.1972 232.702 43.475 239.219C45.5725 243.389 52.4105 243.584 52.5573 245.172C51.1955 245.939 24.6628 245.617 21.0695 245.614L7.4545 245.612C5.356 245.612 2.2585 245.712 0.282501 245.554L0 245.147C0.204 244.617 0.504502 244.167 1.1 244.027C8.918 242.169 10.9388 237.247 11.0868 229.559C11.2508 221.027 11.1725 212.114 11.1733 203.392L11.1728 153.709L11.176 99.8945C11.1785 90.4587 11.2125 81.0245 11.121 71.5897C11.0615 65.4707 9.51775 60.0712 3.4265 57.4667C2.9135 57.3292 2.40225 57.1847 1.89325 57.0332C1.05925 56.781 0.59125 56.6575 0.18475 55.8925L0.445 55.464C1.51 55.0167 2.65475 55.209 3.84725 55.2715Z" fill="#0E2848"/>
<path d="M172.997 75.8752C180.271 69.0232 187.191 61.151 194.282 54.7225C207.1 85.0425 219.495 115.54 231.463 146.206C238.373 163.639 244.98 180.858 252.335 198.146L260.158 217.039C262.123 221.779 264.18 227.459 267.138 231.624C269.905 235.524 274.643 239.849 279.005 241.984C280.56 242.744 284.005 244.007 285.203 244.984C284.505 245.974 276.943 245.634 275.248 245.627L259.783 245.612L239.215 245.614C236.468 245.619 230.065 245.777 227.663 245.382C228.168 243.469 235.358 242.267 234.628 235.884C233.955 229.979 230.475 222.992 228.455 217.467C224.465 206.557 219.723 196.035 215.433 185.343L189.759 120.902C188.292 117.194 187.269 113.17 185.889 109.708C183.267 103.131 180.745 96.3437 178.115 89.8037C177.456 86.6962 174.048 79.7562 172.997 75.8752Z" fill="#0E2848"/>
<path d="M120.458 55.7074C120.889 55.6694 121.321 55.6464 121.753 55.6387C133.472 55.4082 158.678 55.6399 171.807 55.6517C171.918 55.7582 172.029 55.8649 172.141 55.9714C171.864 56.5457 164.041 60.1142 162.598 60.8692C152.256 66.2799 146.429 75.8899 138.312 83.8082C125.703 96.1084 113.961 109.252 101.302 121.513C95.3691 127.273 89.0261 132.454 83.0049 138.065C101.155 140.745 115.277 163.545 124.003 178.033C126.814 182.663 129.588 187.315 132.326 191.988C129.5 193.947 127.119 195.36 124.34 197.553C119.485 201.611 114.073 205.72 109.11 209.749C105.312 203.039 100.979 197.108 96.8419 190.685C92.0269 183.21 87.4979 176.647 82.1564 169.56C75.3087 160.475 67.3337 152.619 55.1119 152.199C53.6064 152.147 47.7137 153.063 46.7124 152.681C46.7894 150.645 55.3847 144.898 57.2737 143.386C63.3374 138.436 69.3132 133.38 75.1977 128.219C78.3504 125.451 81.3734 122.171 84.4292 119.226C92.9572 111.168 101.3 102.916 109.451 94.4769C111.047 92.8569 112.658 91.2552 114.254 89.6332C120.149 83.6242 127.888 77.7482 129.448 68.9547C130.452 63.2932 127.845 59.9224 122.845 57.7637C122.158 57.4672 120.734 56.8467 120.331 56.2614L120.458 55.7074Z" fill="#0E2848"/>
<path d="M197.975 161.041L198.26 161.2C197.946 161.991 190.817 166.3 189.543 167.453C183.768 172.677 177.05 177.169 171.272 182.327C165.047 187.885 158.231 192.984 151.994 198.427C144.604 204.877 137.426 211.689 130.059 218.207C117.023 229.882 103.44 240.937 89.358 251.327C79.8418 258.309 74.261 262.817 63.4948 267.894C46.446 275.937 36.7623 275.114 18.8953 275.444C18.599 275.304 18.7385 275.394 18.54 275.037C19.1443 274.459 22.7108 273.622 23.7058 273.339C27.904 272.147 32.0208 270.684 36.0298 268.959C49.4893 263.289 61.6435 255.877 74.0098 248.169C77.7328 245.899 81.1668 243.064 84.8235 240.707C104.702 227.897 122.279 212.332 140.839 197.812C143.547 195.695 146.671 193.867 149.511 191.857C165.16 180.81 181.333 170.526 197.975 161.041Z" fill="#BA8D45"/>
<path d="M147.415 213.224C147.995 213.462 149.564 216.022 149.951 216.629C157.899 229.137 167.302 242.937 182.308 247.282C184.119 247.804 187.798 247.922 189.341 248.722C188.624 251.949 172.4 252.819 169.35 252.847C168.934 252.852 168.518 252.849 168.102 252.837C150.512 252.392 138.515 244.924 126.726 232.544C132.169 228.342 142.255 218.252 147.415 213.224Z" fill="#0E2848"/>
<path d="M172.997 75.8752C174.047 79.7562 177.456 86.6962 178.114 89.8037C177.411 90.8552 173.406 102.015 172.565 104.148C165.099 123.34 157.82 142.605 150.731 161.939L145.606 175.595C144.676 178.068 143.389 181.945 141.98 184.121C140.871 185.835 135.238 181.046 134.078 180.144C137.334 170.313 142.124 158.81 145.831 149.012L166.907 92.706C168.077 89.564 173.037 78.0872 172.997 75.8752Z" fill="#BA8D45"/>
<path d="M157.99 0C158.533 0.412 159.153 3.13725 159.286 3.80425C160.967 12.241 165.194 18.9545 173.754 21.627C174.868 21.975 180.05 23.29 180.362 24.0153C179.305 24.687 177.727 24.8412 176.514 25.1787C173.433 26.0357 170.215 27.346 167.65 29.264C159.996 34.9887 160.134 44.658 157.84 46.7715C157.46 45.8835 156.492 41.2338 155.729 39.2655C152.704 31.4668 149.089 28.214 141.21 25.4993C139.319 24.8478 137.25 24.824 135.471 23.9893L135.416 23.682C136.415 22.9995 139.333 22.5072 140.768 21.9765C142.99 21.1542 145.036 20.4633 147.115 19.277C155.099 14.7213 155.84 7.641 157.99 0Z" fill="#BA8D45"/>
</svg>
