<svg xmlns="http://www.w3.org/2000/svg" viewBox="0 0 100 100" fill="none" shape-rendering="auto" aria-hidden="true"><metadata xmlns:rdf="http://www.w3.org/1999/02/22-rdf-syntax-ns#" xmlns:xsi="http://www.w3.org/2001/XMLSchema-instance" xmlns:dc="http://purl.org/dc/elements/1.1/" xmlns:dcterms="http://purl.org/dc/terms/"><rdf:RDF><rdf:Description><dc:title>Thumbs</dc:title><dc:creator>DiceBear</dc:creator><dc:source xsi:type="dcterms:URI">https://www.dicebear.com</dc:source><dcterms:license xsi:type="dcterms:URI">https://creativecommons.org/publicdomain/zero/1.0/</dcterms:license><dc:rights>“Thumbs” (https://www.dicebear.com) by “DiceBear”, licensed under “CC0 1.0” (https://creativecommons.org/publicdomain/zero/1.0/)</dc:rights></rdf:Description></rdf:RDF></metadata><defs><g id="eyes-variant07-678b300d"><path d="M11.5 6C8.29 6 7 7.36 7 8.04c0 3.4 1.29 1.35 4.5 1.35S16 11.43 16 8.04C16 7.36 14.71 6 11.5 6" fill="#ffffff"/></g><g id="mouth-variant05-678b300d"><path d="M15.2 3.84c0-.67-4.2-2-4.2-2.67s7 .67 7 2.67-4.2 2.66-4.2 2.66 4.2.67 4.2 2.66-7 3.33-7 2.67 4.2-2 4.2-2.67-3.5-1.33-3.5-2.66 3.5-2 3.5-2.66" fill="#ffffff"/></g><g id="head-default-678b300d"><use transform="translate(-2.13442, -1.4167)" href="#eyes-variant07-678b300d"/><use transform="matrix(-1 0 0 1 44 0) translate(-2.13442, -1.4167)" href="#eyes-variant07-678b300d"/><use transform="translate(7 26) translate(0, -0.09414)" href="#mouth-variant05-678b300d"/></g><g id="body-default-678b300d"><path d="M45 0c24.85 0 45 19.4 45 43.33V130H0V43.33C0 19.4 20.15 0 45 0" fill="#1c799f"/><use transform="translate(24 24) translate(2.18104, -4.09584) rotate(-1.7635, 22, 20)" href="#head-default-678b300d"/></g><clipPath id="clip-678b300d"><rect width="100" height="100" rx="0" ry="0"/></clipPath></defs><g clip-path="url(#clip-678b300d)"><rect width="100" height="100" fill="#f1f4dc"/><use transform="translate(5 10) translate(0.57483, 6.40822) rotate(-13.5488, 45, 65)" href="#body-default-678b300d"/></g></svg>