<svg xmlns="http://www.w3.org/2000/svg" viewBox="0 0 100 100" fill="none" shape-rendering="auto" aria-hidden="true"><metadata xmlns:rdf="http://www.w3.org/1999/02/22-rdf-syntax-ns#" xmlns:xsi="http://www.w3.org/2001/XMLSchema-instance" xmlns:dc="http://purl.org/dc/elements/1.1/" xmlns:dcterms="http://purl.org/dc/terms/"><rdf:RDF><rdf:Description><dc:title>Thumbs</dc:title><dc:creator>DiceBear</dc:creator><dc:source xsi:type="dcterms:URI">https://www.dicebear.com</dc:source><dcterms:license xsi:type="dcterms:URI">https://creativecommons.org/publicdomain/zero/1.0/</dcterms:license><dc:rights>“Thumbs” (https://www.dicebear.com) by “DiceBear”, licensed under “CC0 1.0” (https://creativecommons.org/publicdomain/zero/1.0/)</dc:rights></rdf:Description></rdf:RDF></metadata><defs><g id="eyes-variant03-638b29c1"><path d="M11.86 7.5c0-1.42-4.14-2.85-4.82-4.98C6.34.4 16 5.37 16 7.5s-9.65 7.11-8.96 4.98 4.82-3.56 4.82-4.98" fill="#000000"/></g><g id="mouth-variant04-638b29c1"><path d="M15 10C6.79 10 3.02 3.88 4.22 3.12 5.42 2.35 6.1 6.6 15 6.49c8.9-.12 9.58-4.23 10.78-3.37S23.21 10 15 10" fill="#000000"/></g><g id="head-default-638b29c1"><use transform="translate(3.10274, -0.2517)" href="#eyes-variant03-638b29c1"/><use transform="matrix(-1 0 0 1 44 0) translate(3.10274, -0.2517)" href="#eyes-variant03-638b29c1"/><use transform="translate(7 26) translate(0, -0.08989)" href="#mouth-variant04-638b29c1"/></g><g id="body-default-638b29c1"><path d="M45 0c24.85 0 45 19.4 45 43.33V130H0V43.33C0 19.4 20.15 0 45 0" fill="#69d2e7"/><use transform="translate(24 24) translate(-5.12376, 5.76372) rotate(16.8384, 22, 20)" href="#head-default-638b29c1"/></g><clipPath id="clip-638b29c1"><rect width="100" height="100" rx="0" ry="0"/></clipPath></defs><g clip-path="url(#clip-638b29c1)"><rect width="100" height="100" fill="#f1f4dc"/><use transform="translate(5 10) translate(-3.0024, -4.26166) rotate(8.1592, 45, 65)" href="#body-default-638b29c1"/></g></svg>