<svg xmlns="http://www.w3.org/2000/svg" viewBox="0 0 100 100" fill="none" shape-rendering="auto" aria-hidden="true"><metadata xmlns:rdf="http://www.w3.org/1999/02/22-rdf-syntax-ns#" xmlns:xsi="http://www.w3.org/2001/XMLSchema-instance" xmlns:dc="http://purl.org/dc/elements/1.1/" xmlns:dcterms="http://purl.org/dc/terms/"><rdf:RDF><rdf:Description><dc:title>Thumbs</dc:title><dc:creator>DiceBear</dc:creator><dc:source xsi:type="dcterms:URI">https://www.dicebear.com</dc:source><dcterms:license xsi:type="dcterms:URI">https://creativecommons.org/publicdomain/zero/1.0/</dcterms:license><dc:rights>“Thumbs” (https://www.dicebear.com) by “DiceBear”, licensed under “CC0 1.0” (https://creativecommons.org/publicdomain/zero/1.0/)</dc:rights></rdf:Description></rdf:RDF></metadata><defs><g id="eyes-variant03-af17934f"><path d="M11.86 7.5c0-1.42-4.14-2.85-4.82-4.98C6.34.4 16 5.37 16 7.5s-9.65 7.11-8.96 4.98 4.82-3.56 4.82-4.98" fill="#000000"/></g><g id="mouth-variant03-af17934f"><path d="M15.5 10c-5.07 0-9.3-5.23-8.37-5.88s3.45 2.15 8.37 2.15 7.44-2.88 8.37-2.15S20.57 10 15.5 10" fill="#000000"/></g><g id="head-default-af17934f"><use transform="translate(2.50582, -1.40533)" href="#eyes-variant03-af17934f"/><use transform="matrix(-1 0 0 1 44 0) translate(2.50582, -1.40533)" href="#eyes-variant03-af17934f"/><use transform="translate(7 26) translate(0, -0.72274)" href="#mouth-variant03-af17934f"/></g><g id="body-default-af17934f"><path d="M45 0c24.85 0 45 19.4 45 43.33V130H0V43.33C0 19.4 20.15 0 45 0" fill="#69d2e7"/><use transform="translate(24 24) translate(3.85312, -3.25888) rotate(-2.8364, 22, 20)" href="#head-default-af17934f"/></g><clipPath id="clip-af17934f"><rect width="100" height="100" rx="0" ry="0"/></clipPath></defs><g clip-path="url(#clip-af17934f)"><rect width="100" height="100" fill="#0a5b83"/><use transform="translate(5 10) translate(2.68641, -2.79448) rotate(-1.8362, 45, 65)" href="#body-default-af17934f"/></g></svg>