<svg xmlns="http://www.w3.org/2000/svg" viewBox="0 0 100 100" fill="none" shape-rendering="auto" aria-hidden="true"><metadata xmlns:rdf="http://www.w3.org/1999/02/22-rdf-syntax-ns#" xmlns:xsi="http://www.w3.org/2001/XMLSchema-instance" xmlns:dc="http://purl.org/dc/elements/1.1/" xmlns:dcterms="http://purl.org/dc/terms/"><rdf:RDF><rdf:Description><dc:title>Thumbs</dc:title><dc:creator>DiceBear</dc:creator><dc:source xsi:type="dcterms:URI">https://www.dicebear.com</dc:source><dcterms:license xsi:type="dcterms:URI">https://creativecommons.org/publicdomain/zero/1.0/</dcterms:license><dc:rights>“Thumbs” (https://www.dicebear.com) by “DiceBear”, licensed under “CC0 1.0” (https://creativecommons.org/publicdomain/zero/1.0/)</dc:rights></rdf:Description></rdf:RDF></metadata><defs><g id="eyes-variant07-ac178e96"><path d="M11.5 6C8.29 6 7 7.36 7 8.04c0 3.4 1.29 1.35 4.5 1.35S16 11.43 16 8.04C16 7.36 14.71 6 11.5 6" fill="#ffffff"/></g><g id="mouth-variant01-ac178e96"><path d="M15 11C4.52 11 2.42 2.82 3.12 2.14S8.02 3.5 15 3.5s11.18-2.04 11.88-1.36S25.48 11 15 11" fill="#ffffff"/></g><g id="head-default-ac178e96"><use transform="translate(2.56232, -1.49115)" href="#eyes-variant07-ac178e96"/><use transform="matrix(-1 0 0 1 44 0) translate(2.56232, -1.49115)" href="#eyes-variant07-ac178e96"/><use transform="translate(7 26) translate(0, 0.12758)" href="#mouth-variant01-ac178e96"/></g><g id="body-default-ac178e96"><path d="M45 0c24.85 0 45 19.4 45 43.33V130H0V43.33C0 19.4 20.15 0 45 0" fill="#1c799f"/><use transform="translate(24 24) translate(0.41338, -4.89572) rotate(-15.4744, 22, 20)" href="#head-default-ac178e96"/></g><clipPath id="clip-ac178e96"><rect width="100" height="100" rx="0" ry="0"/></clipPath></defs><g clip-path="url(#clip-ac178e96)"><rect width="100" height="100" fill="#69d2e7"/><use transform="translate(5 10) translate(-3.06837, 0.57746) rotate(-0.5331, 45, 65)" href="#body-default-ac178e96"/></g></svg>